<svg xmlns="http://www.w3.org/2000/svg" xmlns:xlink="http://www.w3.org/1999/xlink" viewBox="0,0,256,256" width="50px" height="50px" fill-rule="nonzero"><g fill="#ffffff" fill-rule="nonzero" stroke="none" stroke-width="1" stroke-linecap="butt" stroke-linejoin="miter" stroke-miterlimit="10" stroke-dasharray="" stroke-dashoffset="0" font-family="none" font-weight="none" font-size="none" text-anchor="none" style="mix-blend-mode: normal"><g transform="scale(5.12,5.12)"><path d="M25,2c-0.71484,0 -1.42578,0.17969 -2.06641,0.53906l-16.84375,9.46484c-1.28125,0.72266 -2.08984,2.07031 -2.08984,3.53125v18.92969c0,1.46484 0.80859,2.8125 2.08984,3.53516l16.84375,9.46094c1.28125,0.72266 2.85156,0.72266 4.13281,0l16.84375,-9.46094c1.28516,-0.72266 2.08984,-2.07422 2.08984,-3.53516v-18.92969c0,-1.46094 -0.80859,-2.80859 -2.08984,-3.53125l-16.84375,-9.46484c-0.64062,-0.35937 -1.35156,-0.53906 -2.06641,-0.53906zM25,4c0.375,0 0.75391,0.09375 1.08984,0.28125l16.84375,9.46484c0.66797,0.37891 1.06641,1.05859 1.06641,1.78906v18.92969c0,0.73047 -0.39844,1.41016 -1.07031,1.78906l-16.83984,9.46484c-0.67187,0.375 -1.50781,0.375 -2.17969,0l-16.83984,-9.46484c-0.67187,-0.37891 -1.07031,-1.05469 -1.07031,-1.78906v-18.92969c0,-0.73047 0.39844,-1.41016 1.07031,-1.78906l16.83984,-9.46484c0.33594,-0.1875 0.71484,-0.28125 1.08984,-0.28125zM25,12c-7.16016,0 -13,5.83984 -13,13c0,7.16016 5.83984,13 13,13c4.08984,0 7.88672,-1.90625 10.33984,-5.13672l0.68359,-0.90234l-6.05469,-3.50781l-0.54687,0.59375c-1.12891,1.23438 -2.73047,1.95313 -4.42187,1.95313c-3.31641,0 -6,-2.68359 -6,-6c0,-3.31641 2.68359,-6 6,-6c1.69141,0 3.29297,0.71875 4.42188,1.95313l0.54688,0.59375l6.05469,-3.50781l-0.68359,-0.90234c-2.45312,-3.23047 -6.25,-5.13672 -10.33984,-5.13672zM25,14c3.07422,0 5.88672,1.31641 7.94531,3.51172l-2.74219,1.58594c-1.44531,-1.26562 -3.24219,-2.09766 -5.20312,-2.09766c-4.40234,0 -8,3.59766 -8,8c0,4.40234 3.59766,8 8,8c1.96094,0 3.75781,-0.83203 5.20313,-2.09766l2.74219,1.58594c-2.05859,2.19531 -4.87109,3.51172 -7.94531,3.51172c-6.07422,0 -11,-4.92578 -11,-11c0,-6.07422 4.92578,-11 11,-11zM35,20v2h-2v2h2v2h-2v2h2v2h2v-2h2v2h2v-2h2v-2h-2v-2h2v-2h-2v-2h-2v2h-2v-2zM37,24h2v2h-2z"></path></g></g></svg>